<svg width="11" height="10" viewBox="0 0 11 10" fill="none" xmlns="http://www.w3.org/2000/svg">
<g id="Path">
<path id="Vector" d="M10.8526 6.64576C10.7588 6.55203 10.6317 6.49938 10.4991 6.49938C10.3665 6.49938 10.2394 6.55203 10.1456 6.64576L8.49933 8.29208V0.499944C8.49933 0.367351 8.44665 0.240188 8.3529 0.14643C8.25914 0.0526725 8.13198 0 7.99938 0C7.86679 0 7.73963 0.0526725 7.64587 0.14643C7.55211 0.240188 7.49944 0.367351 7.49944 0.499944V8.29208L5.85312 6.64576C5.75883 6.55469 5.63254 6.5043 5.50146 6.50544C5.37038 6.50658 5.24498 6.55916 5.15229 6.65185C5.0596 6.74454 5.00702 6.86994 5.00588 7.00102C5.00474 7.1321 5.05513 7.25839 5.1462 7.35268L7.64592 9.8524C7.69236 9.89896 7.74753 9.9359 7.80827 9.9611C7.86901 9.98631 7.93412 9.99928 7.99988 9.99928C8.06564 9.99928 8.13076 9.98631 8.19149 9.9611C8.25223 9.9359 8.3074 9.89896 8.35384 9.8524L10.8536 7.35268C10.9472 7.2588 10.9996 7.13158 10.9994 6.99901C10.9993 6.86645 10.9464 6.73938 10.8526 6.64576Z" fill="black"/>
<path id="Vector_2" d="M5.85363 2.64612L3.3539 0.146403C3.30734 0.0997482 3.25193 0.0628641 3.19092 0.0379146C3.06862 -0.0126382 2.93127 -0.0126382 2.80897 0.0379146C2.74796 0.0628641 2.69255 0.0997482 2.64598 0.146403L0.146262 2.64612C0.0525183 2.74 -9.36327e-05 2.86727 1.25097e-07 2.99994C9.38829e-05 3.13261 0.0528857 3.2598 0.146762 3.35355C0.240638 3.44729 0.367909 3.4999 0.500576 3.49981C0.633243 3.49971 0.76044 3.44692 0.854183 3.35305L2.5005 1.70673V9.49886C2.5005 9.63146 2.55317 9.75862 2.64693 9.85238C2.74069 9.94613 2.86785 9.99881 3.00044 9.99881C3.13304 9.99881 3.2602 9.94613 3.35396 9.85238C3.44772 9.75862 3.50039 9.63146 3.50039 9.49886V1.70673L5.14671 3.35305C5.241 3.44411 5.36728 3.49451 5.49837 3.49337C5.62945 3.49223 5.75484 3.43965 5.84754 3.34696C5.94023 3.25426 5.99281 3.12887 5.99395 2.99779C5.99509 2.8667 5.9447 2.74042 5.85363 2.64612Z" fill="black"/>
</g>
</svg>
