<svg width="52" height="52" viewBox="0 0 52 52" fill="none" xmlns="http://www.w3.org/2000/svg">
<rect width="52" height="52" fill="#1E1E1E"/>
<rect x="-9" y="-8" width="70" height="69" rx="8" fill="white"/>
<path d="M40.2035 27.4482H30.1528C29.7135 27.4482 29.3555 27.8063 29.3555 28.2455C29.3555 28.4692 29.4505 28.6707 29.5988 28.816L36.676 35.8932C36.8213 36.0499 37.0313 36.1479 37.2608 36.1479C37.5376 36.1479 37.7809 36.008 37.9236 35.7954C39.6636 33.7757 40.7825 31.2105 40.984 28.3881C40.9952 28.3405 41.0008 28.293 41.0008 28.2454C41.0009 27.8063 40.6455 27.4482 40.2035 27.4482Z" fill="#686868"/>
<path d="M27.1148 13C26.6755 13.0027 26.3203 13.3581 26.3203 13.7972V24.9669C26.3203 25.4089 26.6755 25.767 27.1148 25.767H38.2873C38.7266 25.767 39.0845 25.4089 39.0845 24.9669C38.69 18.5388 33.5457 13.3945 27.1148 13Z" fill="#686868"/>
<path d="M33.2569 35.015L25.016 26.7741C24.8762 26.6314 24.7923 26.4328 24.7923 26.2174L24.7894 14.5776C24.7894 14.1385 24.4342 13.7832 23.9949 13.7832C17.301 14.1917 12 19.7527 12 26.5475C12 33.6107 17.7262 39.3397 24.7894 39.3397C28.0119 39.3397 30.9547 38.1481 33.2037 36.1814C33.3772 36.0359 33.4863 35.8178 33.4863 35.5744C33.4863 35.359 33.3995 35.1603 33.2569 35.015Z" fill="#686868"/>
<circle cx="26" cy="26" r="25" stroke="#686868" stroke-width="2"/>
</svg>
