<svg width="52" height="52" viewBox="0 0 52 52" fill="none" xmlns="http://www.w3.org/2000/svg">
<rect width="52" height="52" fill="#1E1E1E"/>
<rect x="-9" y="-9" width="70" height="69" rx="8" fill="white"/>
<path d="M28.8831 21.4212L28.6779 23.305C28.6659 23.4205 28.7053 23.5354 28.785 23.6172C28.8641 23.7027 28.978 23.7439 29.0915 23.7279L30.9182 23.5131C30.9546 23.5087 30.9863 23.491 31.0211 23.4832L28.9109 21.3027C28.8994 21.3416 28.8901 21.3812 28.8831 21.4212Z" fill="#5AB95D"/>
<path d="M29.5586 20.4102L35.395 14.3792L37.7383 16.8006L31.9019 22.8316L29.5586 20.4102Z" fill="#5AB95D"/>
<path d="M36.1484 13.5898L36.9423 12.7696L39.2844 15.1898L38.4906 16.0101L36.1484 13.5898Z" fill="#5AB95D"/>
<path d="M40.83 13.594C40.9369 13.4874 40.9975 13.3406 40.9977 13.1872C40.998 13.0313 40.9375 12.8819 40.83 12.7725L39.2834 11.1738C39.178 11.0627 39.0339 11.0001 38.8833 11C38.7357 11.0006 38.5946 11.0624 38.4917 11.1716L37.7031 11.9848L40.0452 14.405L40.83 13.594Z" fill="#5AB95D"/>
<path d="M14.2142 34.2496H15.2856C15.5815 34.2496 15.8213 34.0018 15.8213 33.6961V11.5536C15.8214 11.2478 15.5815 11 15.2856 11H14.2142C12.4398 11.0018 11.0018 12.4878 11 14.3214V35.752C11.8124 34.7967 12.9835 34.2493 14.2142 34.2496Z" fill="#5AB95D"/>
<path d="M14.3696 41.9996H40.4638C40.7597 41.9996 40.9995 41.7518 40.9995 41.4461V19.3036C40.9995 18.9978 40.7597 18.75 40.4638 18.75H37.3567L32.2707 24.0089C31.9369 24.3472 31.5032 24.5605 31.0386 24.615C29.2306 24.8248 29.214 24.8392 29.0576 24.8392H21.1784V30.9284H34.0354V28.1605C34.0354 27.8548 34.2752 27.607 34.5711 27.607C34.8669 27.607 35.1068 27.8548 35.1068 28.1605V36.464C35.1068 37.0755 34.6271 37.5711 34.0354 37.5711H23.3212C23.0254 37.5711 22.7855 37.3232 22.7855 37.0175C22.7855 36.7118 23.0254 36.464 23.3212 36.464H27.0711V32.0355H21.1784V39.7853C21.1784 40.0911 20.9386 40.3389 20.6427 40.3389C20.3469 40.3389 20.107 40.0911 20.107 39.7853V24.8392H18.4999C18.204 24.8392 17.9642 24.5913 17.9642 24.2856C17.9642 23.9799 18.204 23.7321 18.4999 23.7321H27.6653C27.6157 23.5546 27.5987 23.3691 27.6155 23.1851L27.8185 21.2992C27.8708 20.809 28.0854 20.3525 28.426 20.0072L29.6426 18.75H16.8928V33.6962C16.8928 34.6133 16.1732 35.3569 15.2856 35.3569H14.2142C12.4398 35.3587 11.0018 36.8446 11 38.6782V38.8C11.1196 40.6236 12.6011 42.0303 14.3696 41.9996Z" fill="#5AB95D"/>
<path d="M28.1406 32.0352H34.0334V36.4637H28.1406V32.0352Z" fill="#5AB95D"/>
<circle cx="26" cy="26" r="25" stroke="#5AB95D" stroke-width="2"/>
</svg>
