<svg width="52" height="52" viewBox="0 0 52 52" fill="none" xmlns="http://www.w3.org/2000/svg">
<path d="M25.9146 24.9694C27.8338 24.9694 29.4956 24.2811 30.8534 22.923C32.2113 21.5652 32.8996 19.9038 32.8996 17.9845C32.8996 16.0658 32.2113 14.4042 30.8532 13.0459C29.4952 11.6883 27.8335 11 25.9146 11C23.9953 11 22.3339 11.6883 20.9761 13.0461C19.6182 14.404 18.9297 16.0656 18.9297 17.9845C18.9297 19.9038 19.6182 21.5654 20.9763 22.9232C22.3343 24.2808 23.9959 24.9694 25.9146 24.9694Z" fill="#686868"/>
<path d="M38.1362 33.2992C38.097 32.7341 38.0178 32.1177 37.9012 31.4668C37.7835 30.811 37.632 30.1911 37.4505 29.6244C37.2631 29.0388 37.0083 28.4604 36.6932 27.9062C36.3662 27.331 35.9821 26.83 35.5511 26.4178C35.1004 25.9866 34.5486 25.6399 33.9105 25.387C33.2746 25.1355 32.5699 25.008 31.8161 25.008C31.5201 25.008 31.2338 25.1295 30.6809 25.4895C30.3406 25.7114 29.9426 25.968 29.4983 26.2519C29.1184 26.494 28.6038 26.7207 27.9681 26.9261C27.3479 27.1267 26.7183 27.2285 26.0968 27.2285C25.4753 27.2285 24.8458 27.1267 24.225 26.9261C23.59 26.721 23.0753 26.4942 22.6959 26.2521C22.2558 25.9709 21.8576 25.7143 21.5122 25.4893C20.9599 25.1293 20.6734 25.0078 20.3774 25.0078C19.6234 25.0078 18.9189 25.1355 18.2832 25.3873C17.6456 25.6397 17.0936 25.9864 16.6424 26.4181C16.2116 26.8305 15.8273 27.3312 15.5008 27.9062C15.1859 28.4604 14.931 29.0386 14.7434 29.6247C14.5622 30.1913 14.4106 30.811 14.2929 31.4668C14.1763 32.1168 14.0971 32.7335 14.058 33.2999C14.0195 33.8548 14 34.4307 14 35.0124C14 36.5262 14.4812 37.7517 15.4302 38.6555C16.3674 39.5474 17.6075 39.9998 19.1156 39.9998H33.0793C34.5873 39.9998 35.827 39.5476 36.7644 38.6555C37.7136 37.7523 38.1948 36.5266 38.1948 35.0121C38.1946 34.4278 38.1749 33.8515 38.1362 33.2992Z" fill="#686868"/>
<circle cx="26" cy="26" r="25" stroke="#686868" stroke-width="2"/>
</svg>
